<svg xmlns="http://www.w3.org/2000/svg" xmlns:xlink="http://www.w3.org/1999/xlink" version="1.1" x="0px" y="0px" viewBox="0 0 64 80" enable-background="new 0 0 64 64" xml:space="preserve">
    <g>
        <path d="M44.842,2.66c-4.791,0-9.313,1.746-12.842,4.938C28.473,4.406,23.95,2.66,19.159,2.66c-5.117,0-9.929,1.992-13.546,5.611   C1.993,11.89,0,16.7,0,21.818c0,5.117,1.993,9.929,5.613,13.548l25.68,25.682c0.188,0.188,0.441,0.293,0.707,0.293   s0.52-0.105,0.707-0.293l25.68-25.682C62.007,31.747,64,26.936,64,21.818c0-5.118-1.993-9.929-5.613-13.547   C54.77,4.652,49.958,2.66,44.842,2.66z M56.973,33.952L32,58.927L7.027,33.952C3.785,30.711,2,26.401,2,21.818   s1.785-8.892,5.027-12.133c3.24-3.241,7.549-5.025,12.132-5.025c4.584,0,8.893,1.784,12.134,5.025c0.391,0.391,1.023,0.391,1.414,0   c3.242-3.241,7.552-5.025,12.135-5.025c4.582,0,8.891,1.784,12.131,5.025C60.215,12.927,62,17.235,62,21.818   S60.215,30.711,56.973,33.952z"/>
        <path d="M43.816,18.587c-0.069-0.111-0.152-0.204-0.254-0.279c-2.916-3.056-7.016-4.971-11.563-4.971s-8.646,1.916-11.563,4.971   c-0.102,0.075-0.185,0.168-0.254,0.279C17.594,21.431,16,25.196,16,29.337c0,4.161,1.61,7.944,4.224,10.794   c0.051,0.073,0.11,0.137,0.177,0.193c2.918,3.079,7.033,5.013,11.6,5.013c4.567,0,8.684-1.934,11.602-5.014   c0.065-0.057,0.124-0.119,0.175-0.192C46.39,37.282,48,33.498,48,29.337C48,25.196,46.406,21.431,43.816,18.587z M42.688,38.359   c-1.553-0.74-2.85-1.844-3.813-3.184c0.446-0.286,0.6-0.87,0.331-1.335c-0.269-0.464-0.852-0.624-1.321-0.381   c-0.439-0.977-0.725-2.029-0.832-3.13C37.579,30.302,38,29.875,38,29.341s-0.421-0.962-0.948-0.989   c0.106-1.1,0.39-2.152,0.827-3.127c0.146,0.075,0.303,0.116,0.458,0.116c0.346,0,0.682-0.18,0.867-0.5   c0.269-0.466,0.115-1.052-0.334-1.338c0.964-1.342,2.263-2.447,3.817-3.188C44.75,22.754,46,25.9,46,29.337   S44.75,35.921,42.688,38.359z M21.313,20.314c1.555,0.741,2.854,1.847,3.817,3.188c-0.449,0.286-0.603,0.872-0.334,1.338   c0.186,0.32,0.521,0.5,0.867,0.5c0.155,0,0.312-0.041,0.458-0.116c0.438,0.975,0.721,2.027,0.827,3.127   C26.421,28.379,26,28.807,26,29.341s0.421,0.961,0.947,0.989c-0.107,1.101-0.393,2.153-0.832,3.13   c-0.471-0.243-1.053-0.083-1.321,0.381c-0.269,0.465-0.115,1.049,0.331,1.335c-0.963,1.34-2.26,2.443-3.813,3.184   C19.25,35.921,18,32.773,18,29.337S19.25,22.754,21.313,20.314z M22.782,39.848c1.653-0.905,3.04-2.16,4.081-3.657l0.029,0.017   c0.157,0.091,0.329,0.134,0.499,0.134c0.346,0,0.682-0.18,0.867-0.5c0.276-0.479,0.112-1.09-0.366-1.366l-0.029-0.018   c0.598-1.273,0.976-2.663,1.095-4.116H29c0.553,0,1-0.447,1-1s-0.447-1-1-1h-0.041c-0.118-1.454-0.495-2.843-1.093-4.117   l0.028-0.017c0.479-0.276,0.643-0.888,0.366-1.366c-0.277-0.478-0.89-0.643-1.366-0.366l-0.025,0.015   c-1.042-1.5-2.432-2.757-4.087-3.663c2.466-2.165,5.687-3.489,9.218-3.489s6.752,1.324,9.218,3.489   c-1.655,0.906-3.045,2.163-4.087,3.663l-0.025-0.015c-0.479-0.276-1.09-0.111-1.366,0.366c-0.276,0.479-0.112,1.09,0.366,1.366   l0.028,0.017c-0.598,1.274-0.975,2.663-1.093,4.117H35c-0.553,0-1,0.447-1,1s0.447,1,1,1h0.042   c0.119,1.453,0.497,2.843,1.095,4.116l-0.029,0.018c-0.479,0.276-0.643,0.888-0.366,1.366c0.186,0.32,0.521,0.5,0.867,0.5   c0.17,0,0.342-0.043,0.499-0.134l0.029-0.017c1.041,1.497,2.428,2.752,4.081,3.657c-2.466,2.165-5.687,3.489-9.218,3.489   S25.248,42.013,22.782,39.848z"/>
    </g>
</svg>