<svg xmlns="http://www.w3.org/2000/svg" xmlns:xlink="http://www.w3.org/1999/xlink" version="1.1" x="0px" y="0px" viewBox="0 0 32 40" style="enable-background:new 0 0 32 32;" xml:space="preserve">
<title>USER INTERFACE</title>
<path d="M19.7,16.1c2.1-1.1,3.6-3.1,4.1-5.5c0,0,0,0,0,0c0.9-4.3-2-8.5-6.3-9.4c-2.1-0.4-4.2,0-6,1.2c-1.8,1.2-3,3-3.4,5.1  s0,4.2,1.2,6c0.8,1.1,1.8,2,2.9,2.6C6.1,17.7,1.6,23.3,1.6,30c0,0.6,0.4,1,1,1h26.8c0.6,0,1-0.4,1-1C30.4,23.3,25.9,17.7,19.7,16.1z   M11,12.3c-0.9-1.3-1.2-2.9-0.9-4.5c0.3-1.6,1.2-2.9,2.6-3.8c1-0.7,2.1-1,3.3-1c0.4,0,0.8,0,1.2,0.1c3.2,0.6,5.4,3.8,4.7,7.1  c-0.5,2.4-2.3,4.2-4.7,4.7c-0.8,0.2-1.6,0.2-2.3,0C13.3,14.6,11.9,13.7,11,12.3z M3.6,29C4.1,22.6,9.5,17.6,16,17.6  s11.9,5,12.4,11.4H3.6z"/>
<text x="0" y="47" fill="#000000" font-size="5px" font-weight="bold" font-family="'Helvetica Neue', Helvetica, Arial-Unicode, Arial, Sans-serif">Created by Ahmad Roaayala</text>
<text x="0" y="52" fill="#000000" font-size="5px" font-weight="bold" font-family="'Helvetica Neue', Helvetica, Arial-Unicode, Arial, Sans-serif">from the Noun Project</text>
</svg>